<svg viewBox="0 0 20 20" xmlns="http://www.w3.org/2000/svg">
  <path
    d="M1.25 19.5C1.25 20.3297 1.80859 21 2.5 21H17.5C18.1914 21 18.75 20.3297 18.75 19.5V6H1.25V19.5ZM7.5 9.5625C7.5 9.25313 7.71094 9 7.96875 9H12.0312C12.2891 9 12.5 9.25313 12.5 9.5625V9.9375C12.5 10.2469 12.2891 10.5 12.0312 10.5H7.96875C7.71094 10.5 7.5 10.2469 7.5 9.9375V9.5625ZM18.75 0H1.25C0.558594 0 0 0.670312 0 1.5V3.75C0 4.1625 0.28125 4.5 0.625 4.5H19.375C19.7188 4.5 20 4.1625 20 3.75V1.5C20 0.670312 19.4414 0 18.75 0Z" />
</svg>