<svg viewBox="0 0 18 24" xmlns="http://www.w3.org/2000/svg">
  <path
    d="M4.91216 21.2977C4.91267 21.5925 5.00778 21.8813 5.18625 22.1269L6.06017 23.3311C6.20946 23.537 6.41195 23.7058 6.64962 23.8226C6.8873 23.9394 7.15278 24.0005 7.42244 24.0005H10.5781C10.8477 24.0005 11.1132 23.9394 11.3509 23.8226C11.5886 23.7058 11.7911 23.537 11.9403 23.3311L12.8143 22.1269C12.9927 21.8813 13.088 21.5928 13.0884 21.2977L13.0904 19.5H4.9096L4.91216 21.2977ZM0 8.25004C0 10.3299 0.841193 12.2274 2.2275 13.6772C3.07227 14.5608 4.39364 16.4068 4.89733 17.9639C4.89937 17.9761 4.90091 17.9883 4.90295 18.0005H13.097C13.0991 17.9883 13.1006 17.9766 13.1027 17.9639C13.6064 16.4068 14.9277 14.5608 15.7725 13.6772C17.1588 12.2274 18 10.3299 18 8.25004C18 3.68488 13.9556 -0.0140225 8.97188 3.99646e-05C3.75545 0.0145712 0 3.88926 0 8.25004ZM9 4.50004C6.74437 4.50004 4.90909 6.18238 4.90909 8.25004C4.90909 8.66442 4.54295 9.00004 4.09091 9.00004C3.63886 9.00004 3.27273 8.66442 3.27273 8.25004C3.27273 5.35504 5.84182 3.00004 9 3.00004C9.45205 3.00004 9.81818 3.33567 9.81818 3.75004C9.81818 4.16442 9.45205 4.50004 9 4.50004Z" />
</svg>