<svg viewBox="0 0 24 24" xmlns="http://www.w3.org/2000/svg">
  <path
    d="M24.006 14.4188L21.8527 13.2657C22.0701 12.1782 22.0701 11.0625 21.8527 9.97504L24.006 8.82192C24.2536 8.69067 24.3648 8.41879 24.284 8.16567C23.7229 6.49692 22.7676 4.98754 21.5191 3.73129C21.327 3.53911 21.0137 3.49223 20.771 3.62348L18.6178 4.77661C17.7131 4.05473 16.6718 3.49692 15.5447 3.13129V0.829731C15.5447 0.567231 15.3475 0.337544 15.0695 0.281294C13.2145 -0.103081 11.314 -0.0843311 9.54998 0.281294C9.27198 0.337544 9.07485 0.567231 9.07485 0.829731V3.13598C7.95274 3.50629 6.91151 4.06411 6.00169 4.78129L3.85351 3.62817C3.60584 3.49692 3.29751 3.53911 3.10544 3.73598C1.85697 4.98754 0.901663 6.49692 0.340609 8.17036C0.254682 8.42348 0.370936 8.69536 0.618609 8.82661L2.77184 9.97973C2.5545 11.0672 2.5545 12.1829 2.77184 13.2704L0.618609 14.4235C0.370936 14.5547 0.259737 14.8266 0.340609 15.0797C0.901663 16.7485 1.85697 18.2579 3.10544 19.5141C3.29751 19.7063 3.61089 19.7532 3.85351 19.6219L6.00675 18.4688C6.91151 19.1907 7.95274 19.7485 9.07991 20.1141V22.4204C9.07991 22.6829 9.27703 22.9125 9.55503 22.9688C11.41 23.3532 13.3106 23.3344 15.0746 22.9688C15.3526 22.9125 15.5497 22.6829 15.5497 22.4204V20.1141C16.6718 19.7438 17.7131 19.186 18.6229 18.4688L20.7761 19.6219C21.0238 19.7532 21.3321 19.711 21.5242 19.5141C22.7726 18.2625 23.728 16.7532 24.289 15.0797C24.3648 14.8219 24.2536 14.55 24.006 14.4188ZM12.3098 15.3704C10.0807 15.3704 8.26612 13.6875 8.26612 11.6204C8.26612 9.55317 10.0807 7.87036 12.3098 7.87036C14.5388 7.87036 16.3534 9.55317 16.3534 11.6204C16.3534 13.6875 14.5388 15.3704 12.3098 15.3704Z" />
</svg>