<svg viewBox="0 0 20 23" xmlns="http://www.w3.org/2000/svg">
  <path
    d="M1.42857 20.2632C1.42857 20.8191 1.65434 21.3523 2.0562 21.7454C2.45806 22.1385 3.00311 22.3594 3.57143 22.3594H16.4286C16.9969 22.3594 17.5419 22.1385 17.9438 21.7454C18.3457 21.3523 18.5714 20.8191 18.5714 20.2632V5.58985H1.42857V20.2632ZM13.5714 9.08351C13.5714 8.89819 13.6467 8.72047 13.7806 8.58943C13.9146 8.45839 14.0963 8.38478 14.2857 8.38478C14.4752 8.38478 14.6568 8.45839 14.7908 8.58943C14.9247 8.72047 15 8.89819 15 9.08351V18.8657C15 19.0511 14.9247 19.2288 14.7908 19.3598C14.6568 19.4909 14.4752 19.5645 14.2857 19.5645C14.0963 19.5645 13.9146 19.4909 13.7806 19.3598C13.6467 19.2288 13.5714 19.0511 13.5714 18.8657V9.08351ZM9.28571 9.08351C9.28571 8.89819 9.36097 8.72047 9.49492 8.58943C9.62888 8.45839 9.81056 8.38478 10 8.38478C10.1894 8.38478 10.3711 8.45839 10.5051 8.58943C10.639 8.72047 10.7143 8.89819 10.7143 9.08351V18.8657C10.7143 19.0511 10.639 19.2288 10.5051 19.3598C10.3711 19.4909 10.1894 19.5645 10 19.5645C9.81056 19.5645 9.62888 19.4909 9.49492 19.3598C9.36097 19.2288 9.28571 19.0511 9.28571 18.8657V9.08351ZM5 9.08351C5 8.89819 5.07525 8.72047 5.20921 8.58943C5.34316 8.45839 5.52485 8.38478 5.71429 8.38478C5.90373 8.38478 6.08541 8.45839 6.21936 8.58943C6.35332 8.72047 6.42857 8.89819 6.42857 9.08351V18.8657C6.42857 19.0511 6.35332 19.2288 6.21936 19.3598C6.08541 19.4909 5.90373 19.5645 5.71429 19.5645C5.52485 19.5645 5.34316 19.4909 5.20921 19.3598C5.07525 19.2288 5 19.0511 5 18.8657V9.08351ZM19.2857 1.39747H13.9286L13.5089 0.580828C13.42 0.406238 13.2831 0.259378 13.1135 0.156767C12.944 0.0541568 12.7485 -0.000132233 12.5491 7.65666e-06H7.44643C7.24749 -0.000740446 7.05236 0.0533462 6.8834 0.156071C6.71443 0.258795 6.57846 0.406003 6.49107 0.580828L6.07143 1.39747H0.714286C0.524845 1.39747 0.343164 1.47109 0.209209 1.60212C0.0752549 1.73316 0 1.91089 0 2.0962L0 3.49366C0 3.67898 0.0752549 3.8567 0.209209 3.98774C0.343164 4.11878 0.524845 4.19239 0.714286 4.19239H19.2857C19.4752 4.19239 19.6568 4.11878 19.7908 3.98774C19.9247 3.8567 20 3.67898 20 3.49366V2.0962C20 1.91089 19.9247 1.73316 19.7908 1.60212C19.6568 1.47109 19.4752 1.39747 19.2857 1.39747Z" />
</svg>