<svg viewBox="0 0 24 24" xmlns="http://www.w3.org/2000/svg">
  <path
    d="M15.5856 5.8725C14.2423 4.50037 12.4991 3.74822 10.6497 3.75C7.32145 3.75319 4.44812 6.24272 3.65479 9.69609C3.59704 9.94748 3.39174 10.125 3.15416 10.125H0.691926C0.369746 10.125 0.124996 9.80592 0.184594 9.4605C1.11431 4.07456 5.449 0 10.6562 0C13.5114 0 16.1043 1.22512 18.0174 3.21961L19.5521 1.54547C20.2017 0.836766 21.3125 1.3387 21.3125 2.34098V8.625C21.3125 9.24633 20.8508 9.75 20.2812 9.75H14.5209C13.6021 9.75 13.142 8.53823 13.7917 7.82948L15.5856 5.8725ZM1.03125 13.5H6.7916C7.71036 13.5 8.17046 14.7118 7.52082 15.4205L5.72687 17.3775C7.07016 18.7497 8.81354 19.5019 10.663 19.5C13.9895 19.4968 16.864 17.0089 17.6577 13.554C17.7155 13.3026 17.9208 13.1251 18.1583 13.1251H20.6206C20.9428 13.1251 21.1875 13.4442 21.1279 13.7896C20.1982 19.1754 15.8635 23.25 10.6562 23.25C7.80106 23.25 5.2082 22.0249 3.29506 20.0304L1.76043 21.7045C1.11079 22.4132 0 21.9113 0 20.909V14.625C0 14.0037 0.461699 13.5 1.03125 13.5Z" />
</svg>