<svg width="1440" height="1024" viewBox="0 0 1440 1024" fill="none" xmlns="http://www.w3.org/2000/svg">
<rect width="1440" height="1024" fill="#E0E0E0"/>
<rect width="240" height="954" transform="translate(240 70)" fill="#434C5E"/>
<rect width="960" height="70" transform="translate(480)" fill="#4C566A"/>
<rect y="70" width="240" height="954" fill="#3B4252"/>
<path d="M81.0938 119.822H78.832L70.2422 106.674V119.822H67.9805V102.76H70.2422L78.8555 115.967V102.76H81.0938V119.822ZM90.0117 120.057C88.293 120.057 86.8945 119.494 85.8164 118.369C84.7383 117.236 84.1992 115.725 84.1992 113.834V113.436C84.1992 112.178 84.4375 111.057 84.9141 110.072C85.3984 109.08 86.0703 108.307 86.9297 107.752C87.7969 107.189 88.7344 106.908 89.7422 106.908C91.3906 106.908 92.6719 107.451 93.5859 108.537C94.5 109.623 94.957 111.178 94.957 113.201V114.104H86.3672C86.3984 115.354 86.7617 116.365 87.457 117.139C88.1602 117.904 89.0508 118.287 90.1289 118.287C90.8945 118.287 91.543 118.131 92.0742 117.818C92.6055 117.506 93.0703 117.092 93.4688 116.576L94.793 117.607C93.7305 119.24 92.1367 120.057 90.0117 120.057ZM89.7422 108.689C88.8672 108.689 88.1328 109.01 87.5391 109.65C86.9453 110.283 86.5781 111.174 86.4375 112.322H92.7891V112.158C92.7266 111.057 92.4297 110.205 91.8984 109.604C91.3672 108.994 90.6484 108.689 89.7422 108.689ZM108.703 116.834L111.141 107.143H113.309L109.617 119.822H107.859L104.777 110.213L101.777 119.822H100.02L96.3398 107.143H98.4961L100.992 116.635L103.945 107.143H105.691L108.703 116.834Z" fill="#ECEFF4"/>
<path d="M52.4286 109.235H45.3571V102.946C45.3571 102.175 44.6534 101.549 43.7857 101.549H42.2143C41.3466 101.549 40.6429 102.175 40.6429 102.946V109.235H33.5714C32.7037 109.235 32 109.861 32 110.632V112.03C32 112.801 32.7037 113.427 33.5714 113.427H40.6429V119.716C40.6429 120.487 41.3466 121.113 42.2143 121.113H43.7857C44.6534 121.113 45.3571 120.487 45.3571 119.716V113.427H52.4286C53.2963 113.427 54 112.801 54 112.03V110.632C54 109.861 53.2963 109.235 52.4286 109.235Z" fill="#ECEFF4"/>
<path d="M73.7695 984.207H68.2852V999.418H66.0469V984.207H60.5742V982.355H73.7695V984.207ZM81.1992 988.684C80.8711 988.629 80.5156 988.602 80.1328 988.602C78.7109 988.602 77.7461 989.207 77.2383 990.418V999.418H75.0703V986.738H77.1797L77.2148 988.203C77.9258 987.07 78.9336 986.504 80.2383 986.504C80.6602 986.504 80.9805 986.559 81.1992 986.668V988.684ZM90.5625 999.418C90.4375 999.168 90.3359 998.723 90.2578 998.082C89.25 999.129 88.0469 999.652 86.6484 999.652C85.3984 999.652 84.3711 999.301 83.5664 998.598C82.7695 997.887 82.3711 996.988 82.3711 995.902C82.3711 994.582 82.8711 993.559 83.8711 992.832C84.8789 992.098 86.293 991.73 88.1133 991.73H90.2227V990.734C90.2227 989.977 89.9961 989.375 89.543 988.93C89.0898 988.477 88.4219 988.25 87.5391 988.25C86.7656 988.25 86.1172 988.445 85.5938 988.836C85.0703 989.227 84.8086 989.699 84.8086 990.254H82.6289C82.6289 989.621 82.8516 989.012 83.2969 988.426C83.75 987.832 84.3594 987.363 85.125 987.02C85.8984 986.676 86.7461 986.504 87.668 986.504C89.1289 986.504 90.2734 986.871 91.1016 987.605C91.9297 988.332 92.3594 989.336 92.3906 990.617V996.453C92.3906 997.617 92.5391 998.543 92.8359 999.23V999.418H90.5625ZM86.9648 997.766C87.6445 997.766 88.2891 997.59 88.8984 997.238C89.5078 996.887 89.9492 996.43 90.2227 995.867V993.266H88.5234C85.8672 993.266 84.5391 994.043 84.5391 995.598C84.5391 996.277 84.7656 996.809 85.2188 997.191C85.6719 997.574 86.2539 997.766 86.9648 997.766ZM103.172 996.055C103.172 995.469 102.949 995.016 102.504 994.695C102.066 994.367 101.297 994.086 100.195 993.852C99.1016 993.617 98.2305 993.336 97.582 993.008C96.9414 992.68 96.4648 992.289 96.1523 991.836C95.8477 991.383 95.6953 990.844 95.6953 990.219C95.6953 989.18 96.1328 988.301 97.0078 987.582C97.8906 986.863 99.0156 986.504 100.383 986.504C101.82 986.504 102.984 986.875 103.875 987.617C104.773 988.359 105.223 989.309 105.223 990.465H103.043C103.043 989.871 102.789 989.359 102.281 988.93C101.781 988.5 101.148 988.285 100.383 988.285C99.5938 988.285 98.9766 988.457 98.5312 988.801C98.0859 989.145 97.8633 989.594 97.8633 990.148C97.8633 990.672 98.0703 991.066 98.4844 991.332C98.8984 991.598 99.6445 991.852 100.723 992.094C101.809 992.336 102.688 992.625 103.359 992.961C104.031 993.297 104.527 993.703 104.848 994.18C105.176 994.648 105.34 995.223 105.34 995.902C105.34 997.035 104.887 997.945 103.98 998.633C103.074 999.312 101.898 999.652 100.453 999.652C99.4375 999.652 98.5391 999.473 97.7578 999.113C96.9766 998.754 96.3633 998.254 95.918 997.613C95.4805 996.965 95.2617 996.266 95.2617 995.516H97.4297C97.4688 996.242 97.7578 996.82 98.2969 997.25C98.8438 997.672 99.5625 997.883 100.453 997.883C101.273 997.883 101.93 997.719 102.422 997.391C102.922 997.055 103.172 996.609 103.172 996.055ZM110.332 988.273C111.293 987.094 112.543 986.504 114.082 986.504C116.762 986.504 118.113 988.016 118.137 991.039V999.418H115.969V991.027C115.961 990.113 115.75 989.438 115.336 989C114.93 988.562 114.293 988.344 113.426 988.344C112.723 988.344 112.105 988.531 111.574 988.906C111.043 989.281 110.629 989.773 110.332 990.383V999.418H108.164V981.418H110.332V988.273Z" fill="#ECEFF4"/>
<path d="M25.5714 999.544C25.5714 1000.1 25.8198 1000.63 26.2618 1001.03C26.7039 1001.42 27.3034 1001.64 27.9286 1001.64H42.0714C42.6966 1001.64 43.2961 1001.42 43.7382 1001.03C44.1802 1000.63 44.4286 1000.1 44.4286 999.544V984.871H25.5714V999.544ZM38.9286 988.365C38.9286 988.179 39.0114 988.002 39.1587 987.871C39.3061 987.74 39.5059 987.666 39.7143 987.666C39.9227 987.666 40.1225 987.74 40.2699 987.871C40.4172 988.002 40.5 988.179 40.5 988.365V998.147C40.5 998.332 40.4172 998.51 40.2699 998.641C40.1225 998.772 39.9227 998.846 39.7143 998.846C39.5059 998.846 39.3061 998.772 39.1587 998.641C39.0114 998.51 38.9286 998.332 38.9286 998.147V988.365ZM34.2143 988.365C34.2143 988.179 34.2971 988.002 34.4444 987.871C34.5918 987.74 34.7916 987.666 35 987.666C35.2084 987.666 35.4082 987.74 35.5556 987.871C35.7029 988.002 35.7857 988.179 35.7857 988.365V998.147C35.7857 998.332 35.7029 998.51 35.5556 998.641C35.4082 998.772 35.2084 998.846 35 998.846C34.7916 998.846 34.5918 998.772 34.4444 998.641C34.2971 998.51 34.2143 998.332 34.2143 998.147V988.365ZM29.5 988.365C29.5 988.179 29.5828 988.002 29.7301 987.871C29.8775 987.74 30.0773 987.666 30.2857 987.666C30.4941 987.666 30.6939 987.74 30.8413 987.871C30.9886 988.002 31.0714 988.179 31.0714 988.365V998.147C31.0714 998.332 30.9886 998.51 30.8413 998.641C30.6939 998.772 30.4941 998.846 30.2857 998.846C30.0773 998.846 29.8775 998.772 29.7301 998.641C29.5828 998.51 29.5 998.332 29.5 998.147V988.365ZM45.2143 980.679H39.3214L38.8598 979.862C38.762 979.687 38.6114 979.541 38.4249 979.438C38.2384 979.335 38.0233 979.281 37.804 979.281H32.1911C31.9722 979.281 31.7576 979.335 31.5717 979.437C31.3859 979.54 31.2363 979.687 31.1402 979.862L30.6786 980.679H24.7857C24.5773 980.679 24.3775 980.752 24.2301 980.883C24.0828 981.014 24 981.192 24 981.377V982.775C24 982.96 24.0828 983.138 24.2301 983.269C24.3775 983.4 24.5773 983.474 24.7857 983.474H45.2143C45.4227 983.474 45.6225 983.4 45.7699 983.269C45.9172 983.138 46 982.96 46 982.775V981.377C46 981.192 45.9172 981.014 45.7699 980.883C45.6225 980.752 45.4227 980.679 45.2143 980.679V980.679Z" fill="#ECEFF4"/>
<rect width="480" height="70" fill="#2E3440"/>
<path d="M76.665 29.2031L80.8486 39.6445L85.0322 29.2031H87.2207V42H85.5332V37.0166L85.6914 31.6377L81.4902 42H80.1982L76.0059 31.6641L76.1729 37.0166V42H74.4854V29.2031H76.665ZM93.0566 39.6182L95.2715 32.4902H97.0117L93.1885 43.4678C92.5967 45.0498 91.6562 45.8408 90.3672 45.8408L90.0596 45.8145L89.4531 45.7002V44.3818L89.8926 44.417C90.4434 44.417 90.8711 44.3057 91.1758 44.083C91.4863 43.8604 91.7412 43.4531 91.9404 42.8613L92.3008 41.8945L88.9082 32.4902H90.6836L93.0566 39.6182ZM102.496 36.2959C101.049 35.8799 99.9941 35.3701 99.332 34.7666C98.6758 34.1572 98.3477 33.4072 98.3477 32.5166C98.3477 31.5088 98.749 30.6768 99.5518 30.0205C100.36 29.3584 101.409 29.0273 102.698 29.0273C103.577 29.0273 104.359 29.1973 105.045 29.5371C105.736 29.877 106.27 30.3457 106.645 30.9434C107.025 31.541 107.216 32.1943 107.216 32.9033H105.52C105.52 32.1299 105.273 31.5234 104.781 31.084C104.289 30.6387 103.595 30.416 102.698 30.416C101.866 30.416 101.216 30.6006 100.747 30.9697C100.284 31.333 100.053 31.8398 100.053 32.4902C100.053 33.0117 100.272 33.4541 100.712 33.8174C101.157 34.1748 101.91 34.5029 102.971 34.8018C104.037 35.1006 104.869 35.4316 105.467 35.7949C106.07 36.1523 106.516 36.5713 106.803 37.0518C107.096 37.5322 107.242 38.0977 107.242 38.748C107.242 39.7852 106.838 40.6172 106.029 41.2441C105.221 41.8652 104.14 42.1758 102.786 42.1758C101.907 42.1758 101.087 42.0088 100.325 41.6748C99.5635 41.335 98.9746 40.8721 98.5586 40.2861C98.1484 39.7002 97.9434 39.0352 97.9434 38.291H99.6396C99.6396 39.0645 99.9238 39.6768 100.492 40.1279C101.066 40.5732 101.831 40.7959 102.786 40.7959C103.677 40.7959 104.359 40.6143 104.834 40.251C105.309 39.8877 105.546 39.3926 105.546 38.7656C105.546 38.1387 105.326 37.6553 104.887 37.3154C104.447 36.9697 103.65 36.6299 102.496 36.2959ZM115.029 41.0596C114.396 41.8037 113.468 42.1758 112.243 42.1758C111.229 42.1758 110.456 41.8828 109.923 41.2969C109.396 40.7051 109.129 39.832 109.123 38.6777V32.4902H110.749V38.6338C110.749 40.0752 111.335 40.7959 112.507 40.7959C113.749 40.7959 114.575 40.333 114.985 39.4072V32.4902H116.611V42H115.064L115.029 41.0596ZM127.123 37.3506C127.123 38.7979 126.792 39.9639 126.13 40.8486C125.468 41.7334 124.571 42.1758 123.44 42.1758C122.286 42.1758 121.378 41.8096 120.716 41.0771V45.6562H119.09V32.4902H120.575L120.654 33.5449C121.316 32.7246 122.236 32.3145 123.414 32.3145C124.557 32.3145 125.459 32.7451 126.121 33.6064C126.789 34.4678 127.123 35.666 127.123 37.2012V37.3506ZM125.497 37.166C125.497 36.0938 125.269 35.2471 124.812 34.626C124.354 34.0049 123.728 33.6943 122.931 33.6943C121.946 33.6943 121.208 34.1309 120.716 35.0039V39.5479C121.202 40.415 121.946 40.8486 122.948 40.8486C123.728 40.8486 124.346 40.541 124.803 39.9258C125.266 39.3047 125.497 38.3848 125.497 37.166ZM133.144 42.1758C131.854 42.1758 130.806 41.7539 129.997 40.9102C129.188 40.0605 128.784 38.9268 128.784 37.5088V37.21C128.784 36.2666 128.963 35.4258 129.32 34.6875C129.684 33.9434 130.188 33.3633 130.832 32.9473C131.482 32.5254 132.186 32.3145 132.941 32.3145C134.178 32.3145 135.139 32.7217 135.824 33.5361C136.51 34.3506 136.853 35.5166 136.853 37.0342V37.7109H130.41C130.434 38.6484 130.706 39.4072 131.228 39.9873C131.755 40.5615 132.423 40.8486 133.231 40.8486C133.806 40.8486 134.292 40.7314 134.69 40.4971C135.089 40.2627 135.438 39.9521 135.736 39.5654L136.729 40.3389C135.933 41.5635 134.737 42.1758 133.144 42.1758ZM132.941 33.6504C132.285 33.6504 131.734 33.8906 131.289 34.3711C130.844 34.8457 130.568 35.5137 130.463 36.375H135.227V36.252C135.18 35.4258 134.957 34.7871 134.559 34.3359C134.16 33.8789 133.621 33.6504 132.941 33.6504ZM143.339 33.9492C143.093 33.9082 142.826 33.8877 142.539 33.8877C141.473 33.8877 140.749 34.3418 140.368 35.25V42H138.742V32.4902H140.324L140.351 33.5889C140.884 32.7393 141.64 32.3145 142.618 32.3145C142.935 32.3145 143.175 32.3555 143.339 32.4375V33.9492ZM154.105 29.2031V37.9043C154.1 39.1113 153.719 40.0986 152.963 40.8662C152.213 41.6338 151.193 42.0645 149.904 42.1582L149.456 42.1758C148.056 42.1758 146.939 41.7979 146.107 41.042C145.275 40.2861 144.854 39.2461 144.842 37.9219V29.2031H146.512V37.8691C146.512 38.7949 146.767 39.5156 147.276 40.0312C147.786 40.541 148.513 40.7959 149.456 40.7959C150.411 40.7959 151.141 40.541 151.645 40.0312C152.154 39.5215 152.409 38.8037 152.409 37.8779V29.2031H154.105ZM162.051 39.4775C162.051 39.0381 161.884 38.6982 161.55 38.458C161.222 38.2119 160.645 38.001 159.818 37.8252C158.998 37.6494 158.345 37.4385 157.858 37.1924C157.378 36.9463 157.021 36.6533 156.786 36.3135C156.558 35.9736 156.443 35.5693 156.443 35.1006C156.443 34.3213 156.771 33.6621 157.428 33.123C158.09 32.584 158.934 32.3145 159.959 32.3145C161.037 32.3145 161.91 32.5928 162.578 33.1494C163.252 33.7061 163.589 34.418 163.589 35.2852H161.954C161.954 34.8398 161.764 34.4561 161.383 34.1338C161.008 33.8115 160.533 33.6504 159.959 33.6504C159.367 33.6504 158.904 33.7793 158.57 34.0371C158.236 34.2949 158.069 34.6318 158.069 35.0479C158.069 35.4404 158.225 35.7363 158.535 35.9355C158.846 36.1348 159.405 36.3252 160.214 36.5068C161.028 36.6885 161.688 36.9053 162.191 37.1572C162.695 37.4092 163.067 37.7139 163.308 38.0713C163.554 38.4229 163.677 38.8535 163.677 39.3633C163.677 40.2129 163.337 40.8955 162.657 41.4111C161.978 41.9209 161.096 42.1758 160.012 42.1758C159.25 42.1758 158.576 42.041 157.99 41.7715C157.404 41.502 156.944 41.127 156.61 40.6465C156.282 40.1602 156.118 39.6357 156.118 39.0732H157.744C157.773 39.6182 157.99 40.0518 158.395 40.374C158.805 40.6904 159.344 40.8486 160.012 40.8486C160.627 40.8486 161.119 40.7256 161.488 40.4795C161.863 40.2275 162.051 39.8936 162.051 39.4775ZM169.741 42.1758C168.452 42.1758 167.403 41.7539 166.595 40.9102C165.786 40.0605 165.382 38.9268 165.382 37.5088V37.21C165.382 36.2666 165.561 35.4258 165.918 34.6875C166.281 33.9434 166.785 33.3633 167.43 32.9473C168.08 32.5254 168.783 32.3145 169.539 32.3145C170.775 32.3145 171.736 32.7217 172.422 33.5361C173.107 34.3506 173.45 35.5166 173.45 37.0342V37.7109H167.008C167.031 38.6484 167.304 39.4072 167.825 39.9873C168.353 40.5615 169.021 40.8486 169.829 40.8486C170.403 40.8486 170.89 40.7314 171.288 40.4971C171.687 40.2627 172.035 39.9521 172.334 39.5654L173.327 40.3389C172.53 41.5635 171.335 42.1758 169.741 42.1758ZM169.539 33.6504C168.883 33.6504 168.332 33.8906 167.887 34.3711C167.441 34.8457 167.166 35.5137 167.061 36.375H171.824V36.252C171.777 35.4258 171.555 34.7871 171.156 34.3359C170.758 33.8789 170.219 33.6504 169.539 33.6504ZM179.937 33.9492C179.69 33.9082 179.424 33.8877 179.137 33.8877C178.07 33.8877 177.347 34.3418 176.966 35.25V42H175.34V32.4902H176.922L176.948 33.5889C177.481 32.7393 178.237 32.3145 179.216 32.3145C179.532 32.3145 179.772 32.3555 179.937 32.4375V33.9492Z" fill="#F2F2F2"/>
<path d="M43 36.5C46.416 36.5 49.1875 33.4766 49.1875 29.75C49.1875 26.0234 46.416 23 43 23C39.584 23 36.8125 26.0234 36.8125 29.75C36.8125 33.4766 39.584 36.5 43 36.5ZM48.5 38H46.1324C45.1785 38.4781 44.1172 38.75 43 38.75C41.8828 38.75 40.8258 38.4781 39.8676 38H37.5C34.4621 38 32 40.6859 32 44V44.75C32 45.9922 32.9238 47 34.0625 47H51.9375C53.0762 47 54 45.9922 54 44.75V44C54 40.6859 51.5379 38 48.5 38Z" fill="#ECEFF4"/>
<path d="M460.693 37.4188L458.54 36.2657C458.758 35.1782 458.758 34.0625 458.54 32.975L460.693 31.8219C460.941 31.6907 461.052 31.4188 460.971 31.1657C460.41 29.4969 459.455 27.9875 458.207 26.7313C458.015 26.5391 457.701 26.4922 457.459 26.6235L455.305 27.7766C454.401 27.0547 453.359 26.4969 452.232 26.1313V23.8297C452.232 23.5672 452.035 23.3375 451.757 23.2813C449.902 22.8969 448.002 22.9157 446.237 23.2813C445.959 23.3375 445.762 23.5672 445.762 23.8297V26.136C444.64 26.5063 443.599 27.0641 442.689 27.7813L440.541 26.6282C440.293 26.4969 439.985 26.5391 439.793 26.736C438.544 27.9875 437.589 29.4969 437.028 31.1704C436.942 31.4235 437.058 31.6954 437.306 31.8266L439.459 32.9797C439.242 34.0672 439.242 35.1829 439.459 36.2704L437.306 37.4235C437.058 37.5547 436.947 37.8266 437.028 38.0797C437.589 39.7485 438.544 41.2579 439.793 42.5141C439.985 42.7063 440.298 42.7532 440.541 42.6219L442.694 41.4688C443.599 42.1907 444.64 42.7485 445.767 43.1141V45.4204C445.767 45.6829 445.965 45.9125 446.243 45.9688C448.098 46.3532 449.998 46.3344 451.762 45.9688C452.04 45.9125 452.237 45.6829 452.237 45.4204V43.1141C453.359 42.7438 454.401 42.186 455.31 41.4688L457.464 42.6219C457.711 42.7532 458.02 42.711 458.212 42.5141C459.46 41.2625 460.415 39.7532 460.977 38.0797C461.052 37.8219 460.941 37.55 460.693 37.4188V37.4188ZM448.997 38.3704C446.768 38.3704 444.954 36.6875 444.954 34.6204C444.954 32.5532 446.768 30.8704 448.997 30.8704C451.226 30.8704 453.041 32.5532 453.041 34.6204C453.041 36.6875 451.226 38.3704 448.997 38.3704Z" fill="#ECEFF4"/>
<rect x="480" y="70" width="960" height="954" fill="#ECEFF4"/>
</svg>
